<?xml version="1.0" encoding="utf-8"?>
<!-- Generator: Adobe Illustrator 15.0.0, SVG Export Plug-In . SVG Version: 6.00 Build 0)  -->
<!DOCTYPE svg PUBLIC "-//W3C//DTD SVG 1.1//EN" "http://www.w3.org/Graphics/SVG/1.1/DTD/svg11.dtd">
<svg version="1.1" id="Layer_1" xmlns="http://www.w3.org/2000/svg" xmlns:xlink="http://www.w3.org/1999/xlink" x="0px" y="0px"
	 width="12.3px" height="10.7px" viewBox="0 0 12.3 10.7" style="enable-background:new 0 0 12.3 10.7;" xml:space="preserve">
<polygon style="fill:#FFFFFF;" points="4.8,7.6 3.5,5.3 4.8,3 7.5,3 8.8,5.3 7.5,7.6 "/>
<path style="fill:#FFFFFF;" d="M8.7,1l2.5,4.3L8.7,9.7h-5L1.2,5.3L3.7,1H8.7 M9.2,0H8.7h-5H3.1L2.8,0.5L0.3,4.8L0,5.3l0.3,0.5
	l2.5,4.3l0.3,0.5h0.6h5h0.6l0.3-0.5L12,5.8l0.3-0.5L12,4.8L9.5,0.5L9.2,0L9.2,0z"/>
</svg>
